<?xml version="1.0" encoding="UTF-8"?>
<svg id="Layer_1" data-name="Layer 1" xmlns="http://www.w3.org/2000/svg" viewBox="0 0 175.26 92">
  <defs>
    <style>
      .cls-1 {
        fill: #00a99d;
        stroke: #fff;
        stroke-miterlimit: 10;
      }

      .cls-2, .cls-3 {
        fill: #fff;
      }

      .cls-3 {
        font-size: 12px;
      }

      .cls-3, .cls-4 {
        font-family: ErasITC-Bold, 'Eras Bold ITC';
        font-weight: 700;
      }

      .cls-4 {
        font-size: 11.31px;
      }
    </style>
  </defs>
  <ellipse class="cls-1" cx="47" cy="46" rx="46.5" ry="45.5"/>
  <g id="Icon_material-flight" data-name="Icon material-flight">
    <path id="Path_2" data-name="Path 2" class="cls-2" d="m61.66,74.78l4.71-4.83-7.07-30.49,12.97-13.28c1.96-2,1.96-5.16,0-7.07s-5.12-1.84-7.07.17l-12.97,13.28-30.65-6.35-4.71,4.83,24.75,12.38-12.97,13.28-8.25-.98-3.54,3.62,10.61,5.64,5.89,10.47,3.54-3.62-1.18-8.23,12.97-13.28,12.97,24.45Z"/>
  </g>
  <text class="cls-3" transform="translate(94.79 53.04)"><tspan x="0" y="0">World Xplore</tspan></text>
  <text class="cls-4" transform="translate(44.66 51.84) rotate(-42.06) scale(1.03 1)"><tspan x="0" y="0">WX</tspan></text>
  <text class="cls-3" transform="translate(94.7 56.66)"><tspan x="0" y="0">_____________</tspan></text>
</svg>